<svg width="143" height="165" viewBox="0 0 143 165" fill="none" xmlns="http://www.w3.org/2000/svg">
<path d="M47.2809 162.742C27.77 166.644 21.8083 125.346 21.2664 104.209L45.655 100.957L61.9141 133.475C65.1659 141.605 66.7918 158.839 47.2809 162.742Z" fill="#FFF0E0" stroke="#545454" stroke-width="3.14"/>
<path d="M45.8118 133.427C47.1125 136.029 50.6895 136.679 52.3154 136.679C57.1927 135.053 65.3232 130.176 62.0714 120.42C58.8195 110.665 47.4377 110.665 42.56 115.542C37.6822 120.42 44.1859 130.175 45.8118 133.427Z" fill="#E06F6F" stroke="#545454" stroke-width="3.14"/>
<path d="M126.95 61.9363C134.387 89.9275 134.083 115.013 122.978 117.963C111.873 120.914 96.8421 100.614 89.4056 72.623C81.9691 44.6318 84.9432 19.5487 96.0484 16.5984C107.154 13.648 119.514 33.9451 126.95 61.9363Z" fill="#FFBABA" stroke="#545454" stroke-width="3.14"/>
<path d="M115.569 70.0652C110.691 45.6766 92.2644 53.806 81.425 60.3097L89.5546 87.9502C97.6841 91.7439 120.161 93.0236 115.569 70.0652Z" fill="#E06F6F" stroke="#545454" stroke-width="3.14"/>
<path d="M3.37915 100.957C-7.71783 75.9975 51.0725 50.5539 74.9192 42.4243L92.8042 100.957C62.9958 112.338 9.88502 115.59 3.37915 100.957Z" fill="#FFF0E0" stroke="#545454" stroke-width="3.14"/>
<path fill-rule="evenodd" clip-rule="evenodd" d="M123.897 133.69C140.447 129.293 146.061 96.3579 136.435 60.1276C126.81 23.8972 105.59 -1.90894 89.0403 2.48799C72.4901 6.88492 66.8765 39.8199 76.5019 76.0502C86.1273 112.281 107.347 138.087 123.897 133.69ZM122.978 117.963C134.084 115.013 134.387 89.9273 126.95 61.9361C119.514 33.9449 107.154 13.6478 96.0484 16.5982C84.9433 19.5485 81.9692 44.6316 89.4057 72.6228C96.8422 100.614 111.873 120.914 122.978 117.963Z" fill="#FFC7DB" stroke="#545454" stroke-width="3.14"/>
<path d="M41.2848 110.658C29.9737 96.0144 26.5604 79.56 27.0654 64.73C10.2566 75.3548 -2.28434 88.2197 3.37931 100.958C6.74913 108.538 22.6225 111.319 41.2848 110.658Z" fill="#E06F6F" stroke="#545454" stroke-width="3.14"/>
</svg>
