<svg width="158" height="163" viewBox="0 0 158 163" fill="none" xmlns="http://www.w3.org/2000/svg">
<path d="M42.2069 160.724L15.8405 155.001C7.47085 153.184 1.5 145.779 1.5 137.214V53.7061C1.5 51.2366 2.00252 48.793 2.97697 46.5239L3.86643 44.4527C6.02947 39.4159 10.3473 35.6222 15.6206 34.1254L20.087 32.8576L89.1087 19.4088L106.08 16.102L140.146 23.3424C142.232 23.7856 144.223 24.5916 146.029 25.7236L148.756 27.433C153.516 30.4162 156.406 35.6382 156.406 41.2554V103.94V125.91C156.406 131.689 153.661 137.125 149.01 140.556L146.745 142.227C144.458 143.915 141.807 145.043 139.005 145.522L49.1332 160.878C46.8358 161.271 44.4845 161.218 42.2069 160.724Z" fill="#FFC7DB" stroke="#545454" stroke-width="3"/>
<path d="M156.406 103.94V125.91C156.406 131.689 153.661 137.125 149.01 140.556L146.745 142.227C144.458 143.915 141.807 145.043 139.005 145.522L49.1333 160.878C46.8359 161.271 44.4846 161.218 42.207 160.724L37.92 159.793L29.3567 157.935C26.4436 157.302 23.7304 155.964 21.4555 154.038L19.6984 152.55C15.6142 149.092 13.259 144.011 13.259 138.66V56.3451C13.259 52.3367 14.5822 48.4405 17.0231 45.2611L18.8806 42.8418C21.6107 39.2856 25.5574 36.8623 29.9639 36.0362L120.241 19.1116L140.147 23.3423C142.232 23.7854 144.223 24.5914 146.029 25.7235L148.756 27.4328C153.516 30.416 156.406 35.6381 156.406 41.2553V103.94Z" fill="#FFF0E0" stroke="#545454" stroke-width="3"/>
<path d="M156.406 103.94V125.91C156.406 131.689 153.661 137.125 149.01 140.556L146.745 142.227C144.458 143.915 141.807 145.043 139.005 145.522L48.9059 160.917C46.7587 161.284 44.561 161.235 42.4322 160.773C39.7095 160.182 37.1736 158.931 35.0474 157.131L33.0638 155.451C28.9797 151.993 26.6245 146.912 26.6245 141.561V59.246C26.6245 55.2377 27.9477 51.3414 30.3886 48.162L32.2128 45.786C34.9615 42.2058 38.9423 39.7747 43.3825 38.9644L134.994 22.2471L140.146 23.3422C142.232 23.7853 144.223 24.5913 146.029 25.7234L148.756 27.4327C153.516 30.4159 156.406 35.638 156.406 41.2552V103.94Z" fill="#FFC7DB" stroke="#545454" stroke-width="3"/>
<path d="M143.851 101.632V117.914C143.851 123.487 141.205 128.73 136.721 132.041C134.514 133.67 131.955 134.76 129.251 135.222L56.9036 147.592C55.1978 147.884 53.4519 147.845 51.7607 147.477C49.5983 147.008 47.5845 146.014 45.8962 144.583L45.2112 144.003C41.3757 140.753 39.1641 135.98 39.1641 130.953V66.495C39.1641 62.5684 40.4596 58.7515 42.8498 55.6362C45.5434 52.1255 49.4456 49.7412 53.7985 48.9463L123.227 36.2686C125.563 35.8421 127.96 35.8767 130.283 36.3707L133.396 37.0328L137.777 39.7801C141.556 42.1507 143.851 46.2987 143.851 50.7603V101.632Z" fill="#FFBABA" stroke="#545454" stroke-width="3"/>
<path d="M68.6084 78.5771C68.6084 77.0859 69.6751 75.8082 71.1424 75.5419L110.815 68.3426C112.685 68.0032 114.406 69.4401 114.406 71.3407V71.3407C114.406 72.8116 113.356 74.0725 111.909 74.3378L72.2496 81.6113C70.3547 81.9588 68.6084 80.5036 68.6084 78.5771V78.5771Z" fill="#E06F6F"/>
<path d="M68.6084 93.9604C68.6084 92.4692 69.6751 91.1915 71.1424 90.9252L110.815 83.7259C112.685 83.3865 114.406 84.8234 114.406 86.724V86.724C114.406 88.1949 113.356 89.4558 111.909 89.7211L72.2496 96.9946C70.3547 97.3421 68.6084 95.8869 68.6084 93.9604V93.9604Z" fill="#E06F6F"/>
<path d="M68.6084 109.345C68.6084 107.853 69.6751 106.576 71.1424 106.309L110.815 99.1102C112.685 98.7708 114.406 100.208 114.406 102.108V102.108C114.406 103.579 113.356 104.84 111.909 105.105L72.2496 112.379C70.3547 112.726 68.6084 111.271 68.6084 109.345V109.345Z" fill="#E06F6F"/>
<path d="M38.5481 30.4691V26.7558L50.5723 24.457L63.4806 27.9935V31.7069L52.3405 33.8288L38.5481 30.4691Z" fill="#E06F6F"/>
<path d="M38.5481 26.7558V30.4691L52.3405 33.8288M38.5481 26.7558L50.5723 24.457L63.4806 27.9935M38.5481 26.7558L52.3405 30.027M63.4806 27.9935L52.3405 30.027M63.4806 27.9935V31.7069L52.3405 33.8288M52.3405 30.027V33.8288" stroke="#545454" stroke-width="2"/>
<path d="M93.8945 20.1249V16.4115L105.919 14.1128L118.827 17.6493V21.3627L107.687 23.4846L93.8945 20.1249Z" fill="#E06F6F"/>
<path d="M93.8945 16.4115V20.1249L107.687 23.4846M93.8945 16.4115L105.919 14.1128L118.827 17.6493M93.8945 16.4115L107.687 19.6828M118.827 17.6493L107.687 19.6828M118.827 17.6493V21.3627L107.687 23.4846M107.687 19.6828V23.4846" stroke="#545454" stroke-width="2"/>
<path d="M70.7302 30.469L67.0168 29.4964V18.1796L72.8521 5.27128L88.678 2L92.0377 3.14937L97.6961 14.3778V25.4294L93.806 26.2252L90.3579 25.4294V14.3778L87.0866 8.4096L78.7758 9.86875L74.7088 19.0637V29.8501L70.7302 30.469Z" fill="#E06F6F"/>
<path d="M70.7302 30.469L67.0168 29.4964V18.1796L72.8521 5.27128L88.678 2L92.0377 3.14937M70.7302 30.469V19.0637L75.8581 6.42065L92.0377 3.14937M70.7302 30.469L74.7088 29.8501V19.0637L78.7758 9.86875L87.0866 8.4096M92.0377 3.14937L97.6961 14.3778V25.4294L93.806 26.2252M93.806 26.2252V14.3778L90.3579 7.83526L87.0866 8.4096M93.806 26.2252L90.3579 25.4294V14.3778L87.0866 8.4096" stroke="#545454" stroke-width="2"/>
</svg>
