<svg width="144" height="165" viewBox="0 0 144 165" fill="none" xmlns="http://www.w3.org/2000/svg">
<path d="M43.8897 4.05166C6.2881 12.372 0.487842 59.2541 2.28792 81.6551L11.9883 77.5549L21.6888 73.4547C16.8886 55.6939 23.6889 38.1865 27.689 31.6529C30.6892 24.9049 42.0897 9.53326 63.6906 2.0301C57.7577 1.85391 51.1671 2.44135 43.8897 4.05166Z" fill="#E06F6F"/>
<path d="M54.0902 94.0556C44.8098 92.1355 37.4228 99.1225 34.8893 102.856C41.2896 105.323 54.7346 105.816 62.4906 114.056C75.2911 127.657 72.491 141.458 69.8909 149.258C80.7714 148.458 84.0915 146.258 85.4916 141.458C89.4917 108.256 65.6907 96.4557 54.0902 94.0556Z" fill="#E06F6F"/>
<path fill-rule="evenodd" clip-rule="evenodd" d="M16.6885 128.057C19.3553 141.991 29.8891 168.299 50.69 162.059C52.99 161.127 55.0512 160.181 56.8911 159.244C72.5366 148.742 53.6189 123.854 47.2899 120.057C35.849 113.192 25.4889 108.656 16.6885 128.057ZM30.4892 128.057C37.4895 121.057 55.5742 141.458 49.49 149.258C43.4057 157.058 23.4888 135.057 30.4892 128.057Z" fill="#E06F6F"/>
<path d="M2.28792 81.6551L0.722903 81.7808L0.724141 81.7947L2.28792 81.6551ZM43.8897 4.05166L43.5505 2.51874L43.8897 4.05166ZM27.689 31.6529L29.028 32.4726L29.0818 32.3848L29.1236 32.2907L27.689 31.6529ZM63.6906 2.0301L64.2058 3.51318L63.7372 0.460793L63.6906 2.0301ZM11.9883 77.5549L11.3771 76.1087H11.3771L11.9883 77.5549ZM16.6885 128.057H15.1185V128.206L15.1465 128.352L16.6885 128.057ZM7.88816 102.856L6.46183 103.512L7.88816 102.856ZM34.8893 102.856L33.4652 103.517L33.7325 104.093L34.3247 104.321L34.8893 102.856ZM54.0902 94.0556L53.7721 95.593L54.0902 94.0556ZM85.4916 141.458L86.9988 141.897L87.0349 141.773L87.0503 141.645L85.4916 141.458ZM62.4906 114.056L63.6338 112.98L62.4906 114.056ZM47.2899 120.057L46.4821 121.403L47.2899 120.057ZM3.85288 81.5293C2.96643 70.498 3.95818 53.422 9.78041 38.1318C15.5928 22.8677 26.121 9.59144 44.2289 5.58458L43.5505 2.51874C24.0568 6.83224 12.8841 21.1572 6.84596 37.0144C0.817675 52.8457 -0.190671 70.4111 0.722965 81.7808L3.85288 81.5293ZM44.2289 5.58458C51.3891 4.0002 57.85 3.42735 63.644 3.59941L63.7372 0.460793C57.6654 0.280479 50.9451 0.882501 43.5505 2.51874L44.2289 5.58458ZM29.1236 32.2907C31.9624 25.9056 43.0488 10.8621 64.2058 3.51318L63.1755 0.547024C41.1305 8.2044 29.4159 23.9042 26.2544 31.015L29.1236 32.2907ZM26.3501 30.8331C22.2143 37.5881 15.2222 55.5458 20.1731 73.8643L23.2044 73.0451C18.5549 55.8421 25.1634 38.7849 29.028 32.4726L26.3501 30.8331ZM11.3771 76.1087L1.67667 80.2089L2.89917 83.1012L12.5996 79.001L11.3771 76.1087ZM18.2585 128.057C18.2585 117.401 13.0592 110.341 9.31449 102.2L6.46183 103.512C10.5098 112.312 15.1185 118.312 15.1185 128.057H18.2585ZM9.31449 102.2C7.08316 97.3492 5.71307 92.1767 4.90137 88.192C4.49665 86.2052 4.23328 84.5264 4.07146 83.3478C3.99059 82.7588 3.93517 82.2954 3.9002 81.9819C3.88272 81.8251 3.87036 81.7058 3.86248 81.6271C3.85855 81.5877 3.85573 81.5584 3.85396 81.5397C3.85307 81.5303 3.85245 81.5236 3.85208 81.5195C3.85189 81.5175 3.85177 81.5162 3.8517 81.5155C3.85167 81.5151 3.85166 81.5149 3.85166 81.5149C3.85166 81.5149 3.85167 81.5151 3.85167 81.5151C3.85168 81.5152 3.8517 81.5154 2.28792 81.6551C0.724141 81.7947 0.724167 81.795 0.724198 81.7953C0.724213 81.7955 0.724247 81.7959 0.724277 81.7962C0.724338 81.7969 0.724414 81.7977 0.724507 81.7987C0.724691 81.8008 0.724938 81.8035 0.72525 81.8069C0.725873 81.8137 0.726753 81.8231 0.7279 81.8353C0.730194 81.8595 0.733556 81.8944 0.738066 81.9395C0.747085 82.0297 0.760699 82.1608 0.779547 82.3299C0.817238 82.6679 0.875893 83.1577 0.960648 83.775C1.13009 85.009 1.40424 86.7554 1.82456 88.8187C2.66293 92.9344 4.09296 98.3624 6.46183 103.512L9.31449 102.2ZM21.0775 72.0086L11.3771 76.1087L12.5996 79.001L22.3 74.9008L21.0775 72.0086ZM21.6888 73.4547C20.311 74.2075 20.311 74.2075 20.311 74.2074C20.311 74.2074 20.311 74.2074 20.311 74.2074C20.311 74.2075 20.3111 74.2077 20.3112 74.2079C20.3115 74.2084 20.312 74.2092 20.3126 74.2104C20.3139 74.2127 20.3159 74.2165 20.3187 74.2216C20.3243 74.2318 20.3328 74.2475 20.3441 74.2685C20.3669 74.3105 20.4009 74.3736 20.4453 74.4566C20.5342 74.6224 20.6643 74.8671 20.8278 75.1796C21.1549 75.8046 21.6148 76.6993 22.1439 77.7735C23.2043 79.9268 24.5318 82.7801 25.6236 85.6188L28.5544 84.4916C27.4153 81.53 26.0427 78.5831 24.9608 76.3862C24.4186 75.2853 23.9468 74.3675 23.6099 73.7237C23.4414 73.4017 23.3065 73.148 23.2133 72.974C23.1667 72.8869 23.1305 72.8198 23.1057 72.774C23.0933 72.7511 23.0837 72.7335 23.0772 72.7214C23.0739 72.7154 23.0713 72.7107 23.0695 72.7075C23.0687 72.7058 23.068 72.7045 23.0674 72.7036C23.0672 72.7031 23.067 72.7028 23.0668 72.7025C23.0668 72.7023 23.0667 72.7022 23.0666 72.7021C23.0666 72.702 23.0665 72.7019 21.6888 73.4547ZM25.6236 85.6188C26.7565 88.5641 28.7232 93.0508 30.3933 96.7733C31.231 98.6406 31.9987 100.326 32.5569 101.544C32.8361 102.153 33.063 102.646 33.2201 102.987C33.2987 103.157 33.3599 103.289 33.4015 103.379C33.4223 103.424 33.4381 103.458 33.4489 103.482C33.4542 103.493 33.4583 103.502 33.461 103.508C33.4624 103.511 33.4634 103.513 33.4641 103.515C33.4645 103.515 33.4648 103.516 33.4649 103.516C33.465 103.516 33.4651 103.517 33.4652 103.517C33.4652 103.517 33.4652 103.517 34.8893 102.856C36.3134 102.195 36.3134 102.195 36.3134 102.195C36.3134 102.195 36.3133 102.195 36.3132 102.195C36.3131 102.194 36.3128 102.194 36.3125 102.193C36.3119 102.192 36.3109 102.19 36.3096 102.187C36.3069 102.181 36.303 102.172 36.2977 102.161C36.2872 102.139 36.2716 102.105 36.251 102.06C36.2099 101.972 36.1493 101.84 36.0712 101.671C35.9151 101.333 35.6894 100.843 35.4116 100.236C34.8558 99.0233 34.0917 97.3459 33.2582 95.488C31.5858 91.7603 29.6524 87.3465 28.5544 84.4916L25.6236 85.6188ZM36.1885 103.738C37.34 102.041 39.6567 99.5291 42.7612 97.6857C45.8471 95.8533 49.6151 94.733 53.7721 95.593L54.4083 92.5182C49.2848 91.4581 44.7191 92.8713 41.1581 94.9857C37.6157 97.0892 34.9722 99.9379 33.5902 101.974L36.1885 103.738ZM53.7721 95.593C59.3345 96.7439 67.8644 100.168 74.4929 107.277C81.0664 114.327 85.8795 125.112 83.9328 141.27L87.0503 141.645C89.1038 124.602 84.0165 112.886 76.7894 105.135C69.6172 97.4435 60.4464 93.7674 54.4083 92.5182L53.7721 95.593ZM83.9844 141.018C83.38 143.09 82.4347 144.454 80.5127 145.47C78.4514 146.559 75.1783 147.295 69.7757 147.692L70.006 150.824C75.484 150.421 79.3112 149.657 81.98 148.246C84.7883 146.762 86.2031 144.625 86.9988 141.897L83.9844 141.018ZM71.3803 149.754C74.0586 141.719 77.0142 127.197 63.6338 112.98L61.3473 115.132C73.568 128.117 70.9233 141.196 68.4014 148.762L71.3803 149.754ZM63.6338 112.98C59.4631 108.549 53.8317 106.268 48.6117 104.781C45.9962 104.036 43.422 103.474 41.1615 102.957C38.8621 102.431 36.9319 101.961 35.454 101.391L34.3247 104.321C36.047 104.985 38.1975 105.501 40.4614 106.018C42.7643 106.545 45.2362 107.084 47.7514 107.801C52.793 109.237 57.7621 111.323 61.3473 115.132L63.6338 112.98ZM15.1465 128.352C16.5061 135.456 19.8722 145.764 25.626 153.556C28.5106 157.462 32.0534 160.815 36.3245 162.766C40.6319 164.734 45.5831 165.23 51.1412 163.562L50.2389 160.555C45.3966 162.007 41.2306 161.555 37.6293 159.91C33.9918 158.248 30.8343 155.323 28.152 151.691C22.772 144.405 19.5377 134.592 18.2306 127.762L15.1465 128.352ZM48.0976 118.71C45.2269 116.988 42.344 115.362 39.5026 114.225C36.6594 113.087 33.7598 112.398 30.8667 112.643C24.9035 113.147 19.7507 117.506 15.2588 127.409L18.1183 128.706C22.4268 119.208 26.8542 116.134 31.1313 115.772C33.3584 115.583 35.7441 116.103 38.3361 117.14C40.93 118.178 43.6324 119.693 46.4821 121.403L48.0976 118.71ZM31.5993 129.167C32.7157 128.051 34.3832 127.843 36.676 128.774C38.9673 129.705 41.506 131.664 43.7243 134.152C45.9362 136.633 47.714 139.512 48.5802 142.159C49.4613 144.85 49.3016 146.947 48.252 148.292L50.7279 150.224C52.7206 147.669 52.5818 144.29 51.5644 141.182C50.5322 138.028 48.4921 134.782 46.0682 132.063C43.6509 129.351 40.736 127.034 37.8578 125.865C34.981 124.696 31.7628 124.563 29.379 126.947L31.5993 129.167ZM48.252 148.292C47.7578 148.926 47.166 149.231 46.4557 149.315C45.6951 149.404 44.7235 149.244 43.5672 148.769C41.2463 147.814 38.5897 145.755 36.2493 143.157C33.9154 140.566 32.0288 137.586 31.1382 134.922C30.2265 132.195 30.4872 130.279 31.5993 129.167L29.379 126.947C26.991 129.335 27.1161 132.795 28.1602 135.918C29.2252 139.104 31.3856 142.449 33.9164 145.259C36.4407 148.061 39.4667 150.477 42.3726 151.673C43.8297 152.272 45.3576 152.606 46.8234 152.433C48.3396 152.254 49.7011 151.54 50.7279 150.224L48.252 148.292ZM51.2795 163.514C53.6196 162.566 55.7218 161.602 57.6034 160.644L56.1788 157.845C54.3805 158.761 52.3605 159.688 50.1006 160.603L51.2795 163.514ZM57.7661 160.548C62.0974 157.64 64.0804 153.671 64.4457 149.357C64.8045 145.122 63.6041 140.629 61.7653 136.498C59.9184 132.348 57.3727 128.44 54.8874 125.326C52.4332 122.25 49.9236 119.806 48.0976 118.71L46.4821 121.403C47.8206 122.206 50.0492 124.297 52.4331 127.284C54.786 130.233 57.1785 133.914 58.8966 137.774C60.6226 141.652 61.6137 145.588 61.3169 149.092C61.0269 152.517 59.5075 155.597 56.016 157.941L57.7661 160.548ZM68.5044 148.521C68.1779 149.136 67.1708 150.426 65.1396 152.121C63.1403 153.789 60.223 155.786 56.1788 157.845L57.6034 160.644C61.8314 158.491 64.9504 156.368 67.1511 154.532C69.32 152.722 70.6766 151.125 71.2774 149.995L68.5044 148.521ZM51.1412 163.562C53.7575 162.777 55.9543 161.764 57.7661 160.548L56.016 157.941C54.509 158.953 52.6093 159.844 50.2389 160.555L51.1412 163.562Z" fill="#545454"/>
<path fill-rule="evenodd" clip-rule="evenodd" d="M30.4892 128.057C37.4895 121.057 55.5743 141.458 49.4901 149.258C43.4058 157.059 23.4889 135.058 30.4892 128.057Z" fill="#FFF0E0"/>
<path d="M31.5994 129.167C32.7158 128.051 34.3833 127.843 36.6761 128.774C38.9674 129.705 41.5061 131.664 43.7244 134.152C45.9363 136.633 47.714 139.512 48.5803 142.159C49.4614 144.851 49.3016 146.947 48.2521 148.293L50.728 150.224C52.7206 147.669 52.5819 144.29 51.5645 141.182C50.5323 138.028 48.4921 134.782 46.0683 132.063C43.651 129.351 40.7361 127.034 37.8579 125.865C34.981 124.697 31.7629 124.563 29.3791 126.947L31.5994 129.167ZM48.2521 148.293C47.7578 148.926 47.166 149.231 46.4558 149.315C45.6952 149.404 44.7236 149.244 43.5672 148.769C41.2463 147.814 38.5898 145.755 36.2494 143.157C33.9155 140.566 32.0289 137.587 31.1383 134.922C30.2266 132.195 30.4873 130.28 31.5994 129.167L29.3791 126.947C26.9911 129.335 27.1162 132.795 28.1603 135.918C29.2253 139.104 31.3857 142.449 33.9164 145.259C36.4408 148.061 39.4668 150.477 42.3727 151.673C43.8298 152.272 45.3577 152.606 46.8235 152.433C48.3397 152.254 49.7012 151.54 50.728 150.224L48.2521 148.293Z" fill="#545454"/>
<path d="M11.9883 77.5548L2.28784 81.655C2.28784 81.655 3.28788 92.8554 7.88808 102.856C11.7844 111.326 16.6885 117.857 16.6885 128.057C25.4889 108.656 35.8489 113.192 47.2898 120.057C53.6188 123.854 72.5365 148.741 56.891 159.244C65.1632 155.033 68.9636 151.003 69.8908 149.258C72.4909 141.458 75.291 127.657 62.4905 114.056C54.7346 105.816 41.2895 105.323 34.8893 102.856C34.8893 102.856 29.3198 90.8554 27.0889 85.0551C24.8581 79.2548 21.6887 73.4546 21.6887 73.4546L11.9883 77.5548Z" fill="#FFC7DB"/>
<path d="M2.28784 81.655L1.67659 80.2088L0.622268 80.6545L0.724062 81.7946L2.28784 81.655ZM21.6887 73.4546L23.0664 72.7018L22.3855 71.4556L21.0774 72.0085L21.6887 73.4546ZM11.9883 77.5548L11.377 76.1086L11.377 76.1086L11.9883 77.5548ZM16.6885 128.057H15.1185L18.1182 128.706L16.6885 128.057ZM7.88808 102.856L6.46175 103.512L7.88808 102.856ZM34.8893 102.856L33.4652 103.517L33.7324 104.093L34.3246 104.321L34.8893 102.856ZM69.8908 149.258L71.2773 149.994L71.3388 149.879L71.3802 149.754L69.8908 149.258ZM62.4905 114.056L63.6337 112.98L62.4905 114.056ZM47.2898 120.057L46.482 121.403H46.4821L47.2898 120.057ZM56.891 159.244L56.016 157.941L57.6033 160.643L56.891 159.244ZM11.377 76.1086L1.67659 80.2088L2.89909 83.1011L12.5995 79.0009L11.377 76.1086ZM18.2585 128.057C18.2585 117.401 13.0592 110.341 9.31441 102.2L6.46175 103.512C10.5097 112.312 15.1185 118.312 15.1185 128.057H18.2585ZM9.31441 102.2C7.08308 97.349 5.71299 92.1766 4.90129 88.1919C4.49657 86.2051 4.23321 84.5263 4.07138 83.3477C3.99051 82.7587 3.93509 82.2953 3.90013 81.9818C3.88264 81.825 3.87028 81.7057 3.8624 81.627C3.85847 81.5876 3.85565 81.5583 3.85388 81.5396C3.85299 81.5302 3.85237 81.5235 3.852 81.5194C3.85181 81.5174 3.85169 81.5161 3.85162 81.5154C3.85159 81.515 3.85158 81.5148 3.85158 81.5148C3.85158 81.5148 3.85159 81.515 3.85159 81.515C3.8516 81.5151 3.85162 81.5153 2.28784 81.655C0.724062 81.7946 0.724089 81.7949 0.724119 81.7952C0.724134 81.7954 0.724168 81.7958 0.724198 81.7961C0.724259 81.7968 0.724336 81.7976 0.724428 81.7986C0.724612 81.8007 0.72486 81.8034 0.725171 81.8068C0.725795 81.8136 0.726675 81.823 0.727822 81.8352C0.730116 81.8594 0.733477 81.8943 0.737987 81.9394C0.747007 82.0296 0.76062 82.1607 0.779468 82.3298C0.81716 82.6678 0.875814 83.1576 0.960569 83.7749C1.13001 85.0089 1.40417 86.7553 1.82448 88.8186C2.66286 92.9343 4.09288 98.3623 6.46175 103.512L9.31441 102.2ZM21.0774 72.0085L11.377 76.1086L12.5995 79.0009L22.2999 74.9007L21.0774 72.0085ZM21.6887 73.4546C20.311 74.2074 20.3109 74.2073 20.3109 74.2073C20.3109 74.2073 20.3109 74.2073 20.3109 74.2073C20.3109 74.2074 20.311 74.2076 20.3112 74.2078C20.3114 74.2083 20.3119 74.2091 20.3125 74.2103C20.3138 74.2126 20.3158 74.2164 20.3186 74.2215C20.3242 74.2317 20.3327 74.2474 20.3441 74.2684C20.3668 74.3104 20.4009 74.3735 20.4453 74.4564C20.5341 74.6223 20.6642 74.867 20.8277 75.1794C21.1548 75.8045 21.6147 76.6992 22.1438 77.7734C23.2042 79.9267 24.5318 82.78 25.6236 85.6187L28.5543 84.4915C27.4152 81.5299 26.0426 78.583 24.9607 76.3861C24.4185 75.2852 23.9467 74.3674 23.6098 73.7236C23.4413 73.4016 23.3064 73.1479 23.2132 72.9738C23.1666 72.8868 23.1304 72.8197 23.1056 72.7739C23.0932 72.751 23.0836 72.7334 23.0771 72.7213C23.0738 72.7153 23.0712 72.7106 23.0695 72.7073C23.0686 72.7057 23.0679 72.7044 23.0674 72.7035C23.0671 72.703 23.0669 72.7027 23.0668 72.7024C23.0667 72.7022 23.0666 72.7021 23.0666 72.702C23.0665 72.7019 23.0664 72.7018 21.6887 73.4546ZM25.6236 85.6187C26.7564 88.564 28.7232 93.0506 30.3932 96.7732C31.231 98.6405 31.9986 100.326 32.5569 101.544C32.836 102.153 33.0629 102.646 33.22 102.987C33.2986 103.157 33.3598 103.289 33.4014 103.379C33.4222 103.424 33.4381 103.458 33.4488 103.481C33.4541 103.493 33.4582 103.502 33.461 103.508C33.4623 103.511 33.4634 103.513 33.4641 103.514C33.4644 103.515 33.4647 103.516 33.4649 103.516C33.465 103.516 33.465 103.517 33.4651 103.517C33.4651 103.517 33.4652 103.517 34.8893 102.856C36.3134 102.195 36.3134 102.195 36.3133 102.195C36.3133 102.195 36.3132 102.195 36.3132 102.194C36.313 102.194 36.3128 102.194 36.3124 102.193C36.3118 102.192 36.3108 102.189 36.3095 102.187C36.3069 102.181 36.3029 102.172 36.2977 102.161C36.2872 102.138 36.2715 102.105 36.251 102.06C36.2099 101.971 36.1492 101.84 36.0711 101.671C35.915 101.333 35.6893 100.843 35.4115 100.236C34.8557 99.0232 34.0916 97.3458 33.2581 95.4879C31.5857 91.7602 29.6523 87.3464 28.5543 84.4915L25.6236 85.6187ZM71.3802 149.754C74.0586 141.719 77.0142 127.197 63.6337 112.98L61.3472 115.132C73.5679 128.117 70.9233 141.196 68.4014 148.761L71.3802 149.754ZM63.6337 112.98C59.463 108.549 53.8316 106.268 48.6117 104.781C45.9961 104.036 43.422 103.474 41.1615 102.957C38.862 102.431 36.9318 101.961 35.4539 101.391L34.3246 104.321C36.0469 104.985 38.1974 105.5 40.4613 106.018C42.7642 106.545 45.2361 107.084 47.7514 107.801C52.793 109.237 57.762 111.323 61.3472 115.132L63.6337 112.98ZM48.0976 118.71C45.2268 116.988 42.3439 115.362 39.5025 114.225C36.6593 113.087 33.7597 112.398 30.8666 112.643C24.9035 113.147 19.7506 117.506 15.2587 127.408L18.1182 128.706C22.4267 119.207 26.8541 116.133 31.1313 115.772C33.3583 115.583 35.744 116.103 38.336 117.14C40.9299 118.178 43.6324 119.693 46.482 121.403L48.0976 118.71ZM57.7661 160.548C62.0973 157.64 64.0803 153.671 64.4457 149.357C64.8044 145.121 63.604 140.629 61.7652 136.498C59.9184 132.348 57.3726 128.44 54.8873 125.325C52.4331 122.25 49.9236 119.806 48.0976 118.71L46.4821 121.403C47.8206 122.206 50.0491 124.297 52.4331 127.284C54.7859 130.232 57.1785 133.914 58.8965 137.774C60.6225 141.652 61.6136 145.588 61.3169 149.092C61.0268 152.517 59.5074 155.597 56.016 157.941L57.7661 160.548ZM68.5043 148.521C68.1779 149.136 67.1708 150.426 65.1395 152.121C63.1402 153.789 60.2229 155.786 56.1787 157.845L57.6033 160.643C61.8313 158.491 64.9503 156.368 67.1511 154.532C69.3199 152.722 70.6766 151.125 71.2773 149.994L68.5043 148.521Z" fill="#545454"/>
<path d="M88.0916 31.653L105.692 25.2528C101.714 16.7577 88.4124 2.76444 63.6905 2.03027C42.0896 9.53343 30.6891 24.9051 27.689 31.653C54.5701 4.77186 79.1579 20.4525 88.0916 31.653Z" fill="#FFF0E0" stroke="#545454" stroke-width="3.14"/>
<path d="M88.0916 31.6527L105.692 25.2524C107.826 26.5858 112.413 30.2927 113.693 34.4529C115.293 39.6531 123.093 47.8476 124.693 48.8535C126.283 49.8532 158.497 74.7475 131.008 106.273C130.832 106.483 130.661 106.677 130.493 106.856C130.667 106.662 130.838 106.467 131.008 106.273C134.816 101.722 140.248 90.0457 134.894 75.0546C128.442 56.9894 118.932 47.9287 102.292 50.8477C100.878 51.0959 99.4119 51.4306 97.892 51.8536L94.4918 42.6532L88.0916 31.6527Z" fill="#FFC7DB" stroke="#545454" stroke-width="3.14"/>
<path fill-rule="evenodd" clip-rule="evenodd" d="M97.8922 51.8534C90.2252 55.4536 77.7713 69.6142 89.2918 97.4554C97.4274 117.116 110.165 117.919 120.093 113.712C126.893 109.836 138.694 63.654 102.292 50.8476C100.878 51.0957 99.4121 51.4304 97.8922 51.8534ZM107.093 68.0542C92.492 63.454 94.092 93.6554 107.093 100.256C120.093 106.856 121.693 72.6544 107.093 68.0542Z" fill="#E06F6F"/>
<path d="M130.494 106.856C134.294 102.789 140.494 90.7351 134.894 75.0545C128.442 56.9892 118.932 47.9285 102.292 50.8476C138.694 63.654 126.893 109.836 120.093 113.712C124.224 111.961 127.869 109.344 130.494 106.856Z" fill="#E06F6F"/>
<path d="M97.8922 51.8534L97.4712 50.3409L97.3442 50.3763L97.2249 50.4323L97.8922 51.8534ZM89.2918 97.4554L87.8411 98.0557L89.2918 97.4554ZM130.494 106.856L131.574 107.995L131.608 107.963L131.641 107.928L130.494 106.856ZM134.894 75.0545L136.372 74.5264L134.894 75.0545ZM120.093 113.712L120.706 115.157L120.093 113.712ZM102.292 50.8476L102.021 49.3012L102.292 50.8476ZM97.2249 50.4323C93.0175 52.4079 87.6899 57.1683 84.9159 65.0424C82.1301 72.9499 81.9651 83.8554 87.8411 98.0557L90.7425 96.8551C85.098 83.2142 85.3998 73.1188 87.8775 66.0857C90.367 59.0191 95.0999 54.8991 98.5595 53.2746L97.2249 50.4323ZM131.641 107.928C135.785 103.492 142.197 90.8343 136.372 74.5264L133.415 75.5825C138.792 90.6359 132.802 102.086 129.347 105.784L131.641 107.928ZM87.8411 98.0557C92.0136 108.139 97.4844 113.66 103.447 115.996C109.394 118.326 115.505 117.361 120.706 115.157L119.481 112.266C114.753 114.27 109.531 115.007 104.593 113.073C99.6713 111.144 94.7056 106.433 90.7425 96.8551L87.8411 98.0557ZM120.706 115.157C125.035 113.323 128.835 110.591 131.574 107.995L129.414 105.716C126.903 108.096 123.413 110.6 119.481 112.266L120.706 115.157ZM136.372 74.5264C133.106 65.3793 128.988 58.2746 123.387 53.8499C117.712 49.3672 110.701 47.7785 102.021 49.3012L102.564 52.3939C110.523 50.9976 116.587 52.4797 121.44 56.3138C126.367 60.206 130.23 66.6643 133.415 75.5825L136.372 74.5264ZM102.021 49.3012C100.552 49.5589 99.0361 49.9053 97.4712 50.3409L98.3132 53.3659C99.7881 52.9554 101.204 52.6325 102.564 52.3939L102.021 49.3012ZM120.871 115.076C122.12 114.364 123.222 112.884 124.153 111.173C125.121 109.394 126.036 107.114 126.806 104.498C128.346 99.2659 129.347 92.5505 128.961 85.5424C128.188 71.4932 121.793 56.0438 102.813 49.3665L101.771 52.3286C119.193 58.4578 125.099 72.5026 125.826 85.715C126.19 92.3377 125.241 98.695 123.794 103.612C123.07 106.071 122.232 108.134 121.395 109.673C120.52 111.28 119.766 112.091 119.316 112.348L120.871 115.076ZM107.564 66.5568C105.507 65.9087 103.608 65.8352 101.916 66.3426C100.218 66.8521 98.8653 67.907 97.8446 69.2803C95.8461 71.9695 95.0684 75.9297 95.1727 79.995C95.2781 84.106 96.2888 88.5727 98.1364 92.4659C99.9776 96.3456 102.72 99.7964 106.382 101.656L107.803 98.8557C104.965 97.4147 102.632 94.6153 100.973 91.1196C99.3206 87.6375 98.4062 83.6039 98.3116 79.9145C98.2159 76.1794 98.9632 73.0393 100.365 71.1533C101.044 70.239 101.861 69.6376 102.819 69.3502C103.784 69.0607 105.028 69.0497 106.621 69.5516L107.564 66.5568ZM106.382 101.656C108.261 102.61 110.096 102.903 111.802 102.479C113.5 102.058 114.857 100.98 115.89 99.5932C117.916 96.8722 118.909 92.6961 119.013 88.3929C119.117 84.0464 118.323 79.3054 116.51 75.3063C114.701 71.3145 111.786 67.887 107.564 66.5568L106.621 69.5516C109.699 70.5215 112.06 73.0943 113.651 76.6028C115.238 80.104 115.969 84.3634 115.874 88.3172C115.777 92.3144 114.845 95.7387 113.371 97.7178C112.654 98.6807 111.867 99.228 111.046 99.4318C110.233 99.6336 109.174 99.5516 107.803 98.8557L106.382 101.656Z" fill="#545454"/>
<path d="M107.093 68.0541C92.4919 63.4539 94.092 93.6553 107.093 100.255C120.093 106.856 121.693 72.6543 107.093 68.0541Z" fill="#FFF0E0"/>
<path d="M107.564 66.5567C105.507 65.9086 103.608 65.8351 101.916 66.3425C100.218 66.852 98.8652 67.9069 97.8446 69.2802C95.8461 71.9694 95.0684 75.9296 95.1726 79.9949C95.278 84.1059 96.2887 88.5726 98.1363 92.4658C99.9775 96.3454 102.72 99.7963 106.382 101.655L107.803 98.8556C104.965 97.4146 102.632 94.6152 100.973 91.1195C99.3205 87.6374 98.4062 83.6037 98.3116 79.9144C98.2158 76.1793 98.9632 73.0392 100.365 71.1532C101.044 70.2389 101.86 69.6375 102.818 69.3501C103.783 69.0606 105.028 69.0496 106.621 69.5515L107.564 66.5567ZM106.382 101.655C108.261 102.61 110.096 102.903 111.802 102.479C113.499 102.058 114.857 100.98 115.89 99.5931C117.916 96.872 118.909 92.696 119.013 88.3928C119.117 84.0463 118.323 79.3053 116.51 75.3062C114.701 71.3144 111.786 67.8869 107.564 66.5567L106.621 69.5515C109.699 70.5214 112.06 73.0942 113.65 76.6027C115.238 80.1039 115.969 84.3633 115.873 88.3171C115.777 92.3143 114.845 95.7386 113.371 97.7177C112.654 98.6806 111.867 99.2279 111.046 99.4317C110.233 99.6335 109.174 99.5515 107.803 98.8556L106.382 101.655Z" fill="#545454"/>
</svg>
