<svg width="239" height="53" viewBox="0 0 239 53" fill="none" xmlns="http://www.w3.org/2000/svg">
<path d="M125.943 37.6155H132.468L122.649 15.4434H116.472L106.685 37.6155H113.083L114.825 33.3078H124.201L125.943 37.6155ZM116.662 28.6833L119.513 21.5883L122.364 28.6833H116.662Z" fill="#ffff"/>
<path d="M149.196 15.4434V27.258L139.409 15.4434H134.246V37.6155H140.391V25.801L150.178 37.6155H155.341V15.4434H149.196Z" fill="#ffff"/>
<path d="M164.484 37.6155H170.756V20.4163H177.534V15.4434H157.674V20.4163H164.484V37.6155Z" fill="#ffff"/>
<path d="M179.871 37.6155H186.142V15.4434H179.871V37.6155Z" fill="#ffff"/>
<path d="M201.785 38.059C208.88 38.059 214.106 33.1811 214.106 26.5295C214.106 19.8779 208.88 15 201.785 15C194.69 15 189.464 19.8779 189.464 26.5295C189.464 33.1811 194.69 38.059 201.785 38.059ZM201.785 32.8644C198.428 32.8644 195.799 30.3621 195.799 26.5295C195.799 22.6969 198.428 20.1946 201.785 20.1946C205.143 20.1946 207.772 22.6969 207.772 26.5295C207.772 30.3621 205.143 32.8644 201.785 32.8644Z" fill="#ffff"/>
<path d="M232.342 15.4434V27.258L222.554 15.4434H217.391V37.6155H223.536V25.801L233.323 37.6155H238.486V15.4434H232.342Z" fill="#ffff"/>
<path d="M83.4863 37.6155H93.9706C101.319 37.6155 106.355 33.3395 106.355 26.5295C106.355 19.7195 101.319 15.4434 93.9706 15.4434H83.4863V26.5295L89.7579 26.5295V20.448H93.7172C97.4864 20.448 100.02 22.6969 100.02 26.5295C100.02 30.3621 97.4864 32.611 93.7172 32.611H89.7579H83.4863V37.6155Z" fill="#ffff"/>
<path d="M44.6374 52.1767L39.7746 43.6859L34.9028 43.6859L30.04 52.1768L44.6374 52.1767Z" fill="#ffff"/>
<path d="M54.7182 43.6859L46.4057 43.6859L52.3001 52.1767L73.6614 52.1767L37.3387 -5.88526e-05L0 52.1768L22.3773 52.1767L28.2716 43.6859L19.8241 43.6859L33.4292 23.3994L34.9028 39.9758L39.7746 39.9758L41.2482 23.3994L54.7182 43.6859Z" fill="#ffff"/>
</svg>
