<svg width="107" height="165" viewBox="0 0 107 165" fill="none" xmlns="http://www.w3.org/2000/svg">
<path fill-rule="evenodd" clip-rule="evenodd" d="M23.236 157.533C33.5046 161.659 61.2537 167.434 90.1008 157.533C100.488 105.834 115.476 2.43545 92.3267 2.43545C92.3267 2.43545 43.6249 -1.39302 14.2435 13.6538C7.47692 22.4682 15.2448 109.01 16.3804 123.255C17.9474 142.914 22.0786 155.248 23.236 157.533ZM85.2596 152.396C60.4762 161.539 36.6361 156.206 27.8141 152.396C26.8197 150.285 23.2704 138.894 21.9242 120.739C20.9486 107.583 12.3476 26.602 18.161 18.4616C43.4034 4.56555 87.1719 9.15904 87.1719 9.15904C106.127 9.15904 94.1836 104.65 85.2596 152.396Z" fill="#E06F6F"/>
<path d="M14.2435 13.6538C14.2435 13.6538 1.95678 18.9958 1.95679 24.7831C1.95679 30.5703 4.87712 146.796 10.8602 151.568C16.8433 156.34 21.6037 157.533 23.236 157.533C22.0786 155.248 17.9474 142.914 16.3804 123.255C15.2448 109.01 7.47692 22.4682 14.2435 13.6538Z" fill="#E06F6F"/>
<path d="M27.8141 152.396C36.6361 156.206 60.4762 161.539 85.2596 152.396C94.1836 104.65 106.127 9.15904 87.1719 9.15904C87.1719 9.15904 43.4034 4.56555 18.161 18.4616C12.3476 26.602 20.9486 107.583 21.9242 120.739C23.2704 138.894 26.8197 150.285 27.8141 152.396Z" fill="#E06F6F"/>
<path d="M14.2435 13.6538C14.2435 13.6538 1.95678 18.9958 1.95679 24.7831C1.95679 30.5703 4.87712 146.796 10.8602 151.568C16.8433 156.34 21.6037 157.533 23.236 157.533M14.2435 13.6538C43.6249 -1.39302 92.3267 2.43545 92.3267 2.43545C115.476 2.43545 100.488 105.834 90.1008 157.533C61.2537 167.434 33.5046 161.659 23.236 157.533M14.2435 13.6538C7.47692 22.4682 15.2448 109.01 16.3804 123.255C17.9474 142.914 22.0786 155.248 23.236 157.533M27.8141 152.396C36.6361 156.206 60.4762 161.539 85.2596 152.396C94.1836 104.65 106.127 9.15904 87.1719 9.15904C87.1719 9.15904 43.4034 4.56555 18.161 18.4616C12.3476 26.602 20.9486 107.583 21.9242 120.739C23.2704 138.894 26.8197 150.285 27.8141 152.396Z" stroke="#545454" stroke-width="3.14"/>
<path fill-rule="evenodd" clip-rule="evenodd" d="M23.2359 157.533C33.5046 161.659 61.2536 167.434 90.1007 157.533C100.488 105.834 115.476 2.43545 92.3266 2.43545C92.3266 2.43545 43.6248 -1.39302 14.2435 13.6538C7.47684 22.4682 15.2448 109.01 16.3803 123.255C17.9473 142.914 22.0785 155.248 23.2359 157.533Z" fill="#FFC7DB" stroke="#545454" stroke-width="3.14"/>
<path fill-rule="evenodd" clip-rule="evenodd" d="M84.0052 148.223C61.3923 156.875 39.6402 151.828 31.5908 148.223C30.6835 146.226 27.4451 135.447 26.2168 118.268C25.3267 105.82 17.479 29.1935 22.7832 21.4909C45.8148 8.342 85.75 12.6885 85.75 12.6885C103.045 12.6885 92.1477 103.045 84.0052 148.223Z" fill="#FFF0E0"/>
<path d="M31.5908 148.223C39.6402 151.828 61.3923 156.875 84.0052 148.223C92.1477 103.045 103.045 12.6885 85.75 12.6885C85.75 12.6885 45.8148 8.342 22.7832 21.4909C17.479 29.1935 25.3267 105.82 26.2168 118.268C27.4451 135.447 30.6835 146.226 31.5908 148.223Z" fill="#FFF0E0"/>
<path d="M26.2168 118.268C27.4451 135.447 30.6835 146.226 31.5908 148.223C39.6402 151.828 61.3923 156.875 84.0052 148.223C92.1477 103.045 103.045 12.6885 85.75 12.6885C85.75 12.6885 45.8148 8.342 22.7832 21.4909C17.479 29.1935 25.3267 105.82 26.2168 118.268ZM26.2168 118.268L32.4504 114.171C32.4504 114.171 36.2985 106.274 36.3527 106.162L40.4105 97.7455C40.6197 97.3116 41.2409 97.4028 41.3258 97.8798L43.9367 112.541C44.034 113.087 44.7865 113.094 44.8936 112.55L47.3244 100.198C47.4204 99.71 48.0672 99.645 48.2519 100.105L52.0152 109.471C52.1885 109.903 52.785 109.88 52.9275 109.437L56.0337 99.7729C56.1723 99.3416 56.7466 99.3045 56.9358 99.7146L59.5596 105.404C59.7346 105.784 60.2539 105.788 60.4353 105.412L64.4429 97.1C64.6017 96.7705 65.0361 96.7222 65.2587 97.0092L70.4419 103.692C70.6278 103.932 70.9753 103.945 71.1778 103.72L77.2428 96.9919C77.49 96.7176 77.9291 96.8087 78.0555 97.1605L81.2366 106.008C81.3077 106.205 81.4898 106.337 81.6933 106.337H91.022" stroke="#545454" stroke-width="3.14"/>
<path fill-rule="evenodd" clip-rule="evenodd" d="M57.9594 87.5531C71.8752 87.5531 83.1562 74.58 83.1562 58.5768C83.1562 42.5737 71.8752 29.6006 57.9594 29.6006C44.0437 29.6006 32.7627 42.5737 32.7627 58.5768C32.7627 74.58 44.0437 87.5531 57.9594 87.5531ZM52.9201 47.2384C52.9201 44.4552 55.1763 42.199 57.9594 42.199C60.7426 42.199 62.9988 44.4552 62.9988 47.2384V59.8367C62.9988 62.6199 60.7426 64.8761 57.9594 64.8761C55.1763 64.8761 52.9201 62.6199 52.9201 59.8367V47.2384ZM47.8807 56.0572C49.2723 56.0572 50.4004 57.1853 50.4004 58.5769V59.8367C50.4004 64.0115 53.7847 67.3958 57.9594 67.3958C62.1341 67.3958 65.5184 64.0115 65.5184 59.8367V58.5769C65.5184 57.1853 66.6465 56.0572 68.0381 56.0572C69.4297 56.0572 70.5578 57.1853 70.5578 58.5769V59.8367C70.5578 65.9317 66.2296 71.0158 60.4791 72.1831V74.9548C60.4791 76.3463 59.351 77.4744 57.9594 77.4744C56.5678 77.4744 55.4397 76.3463 55.4397 74.9548V72.1831C49.6892 71.0158 45.361 65.9317 45.361 59.8367V58.5769C45.361 57.1853 46.4891 56.0572 47.8807 56.0572Z" fill="#FFBABA"/>
</svg>
