<svg width="166" height="163" viewBox="0 0 166 163" fill="none" xmlns="http://www.w3.org/2000/svg">
<path opacity="0.2" d="M45.7913 43.1611L4.32166 67.244C1.79265 68.7127 0.61371 71.7339 1.47951 74.5273L26.6145 155.623C27.7934 159.427 32.1717 161.184 35.6533 159.251L72.2174 138.95C73.7195 138.116 75.498 137.934 77.1377 138.448L116.78 150.858C118.462 151.385 120.289 151.18 121.812 150.292L157.323 129.606C159.806 128.16 160.989 125.212 160.195 122.451L138.753 47.8809C137.791 44.5336 134.286 42.6108 130.946 43.5975L94.4731 54.3709C93.3163 54.7126 92.0856 54.7136 90.9282 54.3739L50.7097 42.5666C49.0581 42.0817 47.2798 42.2967 45.7913 43.1611Z" fill="#E1E1E1"/>
<path d="M48.7908 30.6191L7.32117 54.702C4.79216 56.1707 3.61322 59.1919 4.47902 61.9853L29.614 143.081C30.7929 146.885 35.1712 148.642 38.6528 146.709L75.2169 126.408C76.7191 125.574 78.4975 125.392 80.1372 125.906L119.779 138.316C121.462 138.843 123.288 138.638 124.812 137.75L160.323 117.064C162.805 115.618 163.989 112.67 163.195 109.909L141.753 35.3389C140.79 31.9916 137.286 30.0688 133.945 31.0555L97.4726 41.8289C96.3158 42.1706 95.0851 42.1716 93.9278 41.8319L53.7092 30.0246C52.0576 29.5397 50.2793 29.7547 48.7908 30.6191Z" fill="#FFF0E0"/>
<path d="M7.32117 54.702L8.1089 56.0585L8.1089 56.0585L7.32117 54.702ZM48.7908 30.6191L49.5786 31.9755L49.5786 31.9755L48.7908 30.6191ZM53.7092 30.0246L53.2673 31.5297L53.2673 31.5297L53.7092 30.0246ZM93.9278 41.8319L94.3696 40.3268L94.3696 40.3268L93.9278 41.8319ZM97.4726 41.8289L97.917 43.3333L97.917 43.3333L97.4726 41.8289ZM133.945 31.0555L134.39 32.5598L134.39 32.5598L133.945 31.0555ZM141.753 35.3389L143.26 34.9054L143.26 34.9054L141.753 35.3389ZM163.195 109.909L164.702 109.475L164.702 109.475L163.195 109.909ZM160.323 117.064L161.112 118.42L161.112 118.42L160.323 117.064ZM124.812 137.75L125.601 139.105L125.601 139.105L124.812 137.75ZM119.779 138.316L119.31 139.813L119.31 139.813L119.779 138.316ZM80.1372 125.906L79.6686 127.403L79.6686 127.403L80.1372 125.906ZM75.2169 126.408L74.4555 125.036L74.4555 125.036L75.2169 126.408ZM38.6528 146.709L39.4142 148.081L39.4142 148.081L38.6528 146.709ZM29.614 143.081L31.1123 142.617L31.1123 142.617L29.614 143.081ZM4.47902 61.9853L5.9773 61.5209L4.47902 61.9853ZM8.1089 56.0585L49.5786 31.9755L48.0031 29.2627L6.53343 53.3456L8.1089 56.0585ZM53.2673 31.5297L93.4859 43.3369L94.3696 40.3268L54.151 28.5195L53.2673 31.5297ZM97.917 43.3333L134.39 32.5598L133.501 29.5511L97.0282 40.3246L97.917 43.3333ZM140.245 35.7724L161.687 110.342L164.702 109.475L143.26 34.9054L140.245 35.7724ZM159.533 115.709L124.022 136.395L125.601 139.105L161.112 118.42L159.533 115.709ZM120.248 136.819L80.6058 124.409L79.6686 127.403L119.31 139.813L120.248 136.819ZM74.4555 125.036L37.8913 145.338L39.4142 148.081L75.9783 127.779L74.4555 125.036ZM31.1123 142.617L5.9773 61.5209L2.98075 62.4497L28.1157 143.545L31.1123 142.617ZM37.8913 145.338C35.2802 146.788 31.9964 145.47 31.1123 142.617L28.1157 143.545C29.5894 148.3 35.0622 150.497 39.4142 148.081L37.8913 145.338ZM80.6058 124.409C78.5562 123.767 76.3332 123.994 74.4555 125.036L75.9783 127.779C77.105 127.154 78.4388 127.018 79.6686 127.403L80.6058 124.409ZM124.022 136.395C122.88 137.06 121.51 137.214 120.248 136.819L119.31 139.813C121.414 140.472 123.697 140.215 125.601 139.105L124.022 136.395ZM161.687 110.342C162.283 112.413 161.395 114.624 159.533 115.709L161.112 118.42C164.216 116.612 165.695 112.927 164.702 109.475L161.687 110.342ZM134.39 32.5598C136.895 31.8198 139.523 33.2619 140.245 35.7724L143.26 34.9054C142.057 30.7213 137.676 28.3178 133.501 29.5511L134.39 32.5598ZM93.4859 43.3369C94.9326 43.7617 96.471 43.7604 97.917 43.3333L97.0282 40.3246C96.1607 40.5809 95.2376 40.5816 94.3696 40.3268L93.4859 43.3369ZM49.5786 31.9755C50.6949 31.3272 52.0286 31.166 53.2673 31.5297L54.151 28.5195C52.0866 27.9134 49.8637 28.1821 48.0031 29.2627L49.5786 31.9755ZM6.53343 53.3456C3.37217 55.1815 1.8985 58.9579 2.98075 62.4497L5.9773 61.5209C5.32794 59.4259 6.21215 57.16 8.1089 56.0585L6.53343 53.3456Z" fill="#545454"/>
<path d="M131.78 81.8809L131.238 83.2817C130.217 85.9192 131.087 88.9138 133.362 90.5939L133.571 90.7483C136.26 92.7338 136.92 96.4783 135.073 99.2637L130.731 105.81C129.94 107.002 129.581 108.429 129.712 109.853L130.05 113.526C130.471 118.095 135.494 120.682 139.458 118.371L149.449 112.547C151.979 111.072 153.152 108.042 152.275 105.247L145.377 83.2748C144.904 81.7687 143.881 80.4962 142.511 79.7111L140.752 78.7027C137.419 76.7918 133.167 78.2981 131.78 81.8809Z" fill="#FFC7DB"/>
<path d="M48.6198 45.2098L18.5072 62.6665C15.9745 64.1347 14.7937 67.1593 15.6618 69.9552L33.8408 128.505C35.0207 132.305 39.3944 134.061 42.8746 132.132L65.6362 119.517C68.543 117.906 69.6893 114.308 68.2502 111.312L64.94 104.421C63.4701 101.362 59.8336 100.026 56.7327 101.406L47.6661 105.442C44.2174 106.977 40.2036 105.142 39.1094 101.529L35.2832 88.8949C34.4872 86.2668 35.4927 83.4266 37.7647 81.8846L71.0727 59.2794C75.633 56.1845 74.2734 49.1351 68.8891 47.9582L53.1064 44.5084C51.5757 44.1738 49.9753 44.424 48.6198 45.2098Z" fill="#FFBABA"/>
<ellipse opacity="0.2" cx="121.738" cy="56.6662" rx="10.7697" ry="5.86198" fill="#FFBABA"/>
<ellipse opacity="0.2" cx="65.0272" cy="84.4768" rx="9.95174" ry="6.67993" fill="#545454"/>
<path d="M64.7544 88.1241C66.4067 88.1241 67.9412 87.7501 69.0903 87.1055C70.2144 86.4749 71.128 85.4804 71.128 84.2043C71.128 82.9282 70.2144 81.9338 69.0903 81.3032C67.9412 80.6586 66.4067 80.2846 64.7544 80.2846C63.1021 80.2846 61.5675 80.6586 60.4184 81.3032C59.2943 81.9338 58.3807 82.9282 58.3807 84.2043C58.3807 85.4804 59.2943 86.4749 60.4184 87.1055C61.5675 87.7501 63.1021 88.1241 64.7544 88.1241Z" fill="#545454" stroke="#545454" stroke-width="1.56859"/>
<path fill-rule="evenodd" clip-rule="evenodd" d="M121.833 53.9944C121.833 53.9944 141.831 33.0424 141.831 21.9979C141.831 10.9533 132.877 2 121.833 2C110.788 2 101.835 10.9533 101.835 21.9979C101.835 33.0424 121.833 53.9944 121.833 53.9944ZM121.875 28.1746C125.413 28.1746 128.282 25.2449 128.282 21.631C128.282 18.017 125.413 15.0874 121.875 15.0874C118.336 15.0874 115.468 18.017 115.468 21.631C115.468 25.2449 118.336 28.1746 121.875 28.1746Z" fill="#E06F6F"/>
<path d="M121.833 53.9944L120.698 55.0774L121.833 56.2663L122.968 55.0774L121.833 53.9944ZM140.262 21.9979C140.262 24.3587 139.168 27.4551 137.322 30.9189C135.501 34.3353 133.054 37.9167 130.58 41.1924C128.11 44.4623 125.636 47.3958 123.778 49.5136C122.85 50.5716 122.077 51.424 121.538 52.0106C121.268 52.3039 121.057 52.5306 120.913 52.6833C120.842 52.7596 120.787 52.8174 120.751 52.8558C120.733 52.8749 120.719 52.8892 120.71 52.8985C120.706 52.9032 120.703 52.9066 120.701 52.9087C120.7 52.9098 120.699 52.9106 120.698 52.911C120.698 52.9112 120.698 52.9113 120.698 52.9114C120.698 52.9115 120.698 52.9114 121.833 53.9944C122.968 55.0774 122.968 55.0772 122.968 55.0769C122.968 55.0767 122.969 55.0763 122.969 55.0759C122.97 55.0751 122.971 55.0739 122.972 55.0724C122.975 55.0695 122.979 55.0653 122.984 55.0598C122.995 55.0489 123.01 55.033 123.029 55.0122C123.069 54.9706 123.127 54.9094 123.201 54.8295C123.351 54.6699 123.57 54.4357 123.847 54.1345C124.401 53.5321 125.19 52.6614 126.137 51.5826C128.028 49.4267 130.554 46.4319 133.083 43.0833C135.608 39.7404 138.162 36.0129 140.09 32.3945C141.994 28.8235 143.399 25.1593 143.399 21.9979H140.262ZM121.833 3.56859C132.011 3.56859 140.262 11.8196 140.262 21.9979H143.399C143.399 10.087 133.744 0.431414 121.833 0.431414V3.56859ZM103.404 21.9979C103.404 11.8196 111.655 3.56859 121.833 3.56859V0.431414C109.922 0.431414 100.266 10.087 100.266 21.9979H103.404ZM121.833 53.9944C122.968 52.9114 122.968 52.9115 122.968 52.9114C122.967 52.9113 122.967 52.9112 122.967 52.911C122.967 52.9106 122.966 52.9098 122.965 52.9087C122.963 52.9066 122.96 52.9032 122.955 52.8985C122.946 52.8892 122.933 52.8749 122.915 52.8558C122.878 52.8174 122.824 52.7596 122.752 52.6833C122.609 52.5306 122.398 52.3039 122.128 52.0106C121.588 51.424 120.816 50.5716 119.887 49.5136C118.029 47.3958 115.556 44.4623 113.086 41.1924C110.611 37.9167 108.165 34.3353 106.344 30.9189C104.498 27.4551 103.404 24.3587 103.404 21.9979H100.266C100.266 25.1593 101.672 28.8235 103.575 32.3945C105.504 36.0129 108.057 39.7404 110.582 43.0833C113.112 46.4319 115.638 49.4267 117.529 51.5826C118.476 52.6614 119.265 53.5321 119.819 54.1345C120.096 54.4357 120.314 54.6699 120.464 54.8295C120.539 54.9094 120.597 54.9706 120.636 55.0122C120.656 55.033 120.671 55.0489 120.681 55.0598C120.687 55.0653 120.691 55.0695 120.693 55.0724C120.695 55.0739 120.696 55.0751 120.697 55.0759C120.697 55.0763 120.697 55.0767 120.698 55.0769C120.698 55.0772 120.698 55.0774 121.833 53.9944ZM126.714 21.631C126.714 24.4099 124.516 26.606 121.875 26.606V29.7432C126.311 29.7432 129.851 26.0799 129.851 21.631H126.714ZM121.875 16.6559C124.516 16.6559 126.714 18.852 126.714 21.631H129.851C129.851 17.182 126.311 13.5188 121.875 13.5188V16.6559ZM117.036 21.631C117.036 18.852 119.233 16.6559 121.875 16.6559V13.5188C117.439 13.5188 113.899 17.182 113.899 21.631H117.036ZM121.875 26.606C119.233 26.606 117.036 24.4099 117.036 21.631H113.899C113.899 26.0799 117.439 29.7432 121.875 29.7432V26.606Z" fill="#545454"/>
<path fill-rule="evenodd" clip-rule="evenodd" d="M113.174 43.8805C108.801 37.7679 104.744 30.7253 104.744 25.6338C104.744 14.5893 113.697 5.63594 124.742 5.63594C130.225 5.63594 135.192 7.84248 138.805 11.416C135.272 5.76156 128.992 2 121.833 2C110.788 2 101.835 10.9533 101.835 21.9979C101.835 28.0148 107.77 36.9723 113.174 43.8805Z" fill="black" fill-opacity="0.04"/>
<path d="M70.2075 81.7499C75.687 80.8551 81.9739 78.3038 83.4275 86.3369C83.8237 88.5263 84.305 90.5864 85.2686 92.6169C86.724 95.6836 89.2356 99.1988 92.1792 100.94C95.6278 102.98 99.2572 102.829 102.848 101.192C105.518 99.9751 108.167 97.9613 107.564 94.685C106.846 90.783 98.9124 82.8023 105.269 79.5776C110.006 77.1747 115.951 76.9294 121.158 77.005C123.408 77.0378 125.654 77.1709 127.905 77.1438C130.038 77.1181 131.531 77.0566 132.672 75.1009C134.019 72.7904 132.494 70.7512 130.578 69.3757C127.985 67.514 126.43 66.415 125.711 63.1965C125.07 60.3297 125.079 58.7439 122.873 56.9795" stroke="#545454" stroke-width="1.8823" stroke-linecap="round" stroke-dasharray="6.27 6.27"/>
</svg>
