<svg width="185" height="196" viewBox="0 0 185 196" fill="none" xmlns="http://www.w3.org/2000/svg">
<path fill-rule="evenodd" clip-rule="evenodd" d="M50 7H135V40H142V7V0H135H50H43V7V40H50V7ZM50 148H43V189V196H50H135H142V189V148H135V189H50V148Z" fill="#FF4C4C"/>
<path d="M4.092 135H15.378V116.256H29.502V107.478H15.378V97.71H34.254V88.668H4.092V135ZM40.1858 135H51.4718V88.668H40.1858V135ZM57.1426 97.71H69.4186V135H80.7046V97.71H92.9806V88.668H57.1426V97.71ZM98.4467 116.322C98.4467 129.126 106.829 135.462 117.587 135.462C128.279 135.462 137.255 129.126 137.255 116.322V88.668H125.969V116.388C125.969 121.866 123.131 125.034 117.785 125.034C112.439 125.034 109.733 121.866 109.733 116.388V88.668H98.4467V116.322ZM169.666 103.716C169.666 107.346 167.686 109.524 163.462 109.524H156.466V98.04H163.462C167.686 98.04 169.666 100.284 169.666 103.716ZM145.18 88.668V135H156.466V117.51H159.172L168.808 135H181.546L170.854 116.652C177.982 114.54 181.15 109.062 181.15 103.254C181.15 95.202 175.474 88.668 164.122 88.668H145.18Z" fill="#FF4C4C"/>
<path d="M43.644 52.878C45.62 52.878 47.3273 53.2507 48.766 53.996C50.222 54.724 51.3313 55.7727 52.094 57.142C52.874 58.5113 53.264 60.1233 53.264 61.978C53.264 63.8327 52.874 65.4447 52.094 66.814C51.3313 68.166 50.222 69.206 48.766 69.934C47.3273 70.6447 45.62 71 43.644 71H38.002V52.878H43.644ZM43.644 69.05C45.984 69.05 47.7693 68.4347 49 67.204C50.2307 65.956 50.846 64.214 50.846 61.978C50.846 59.7247 50.222 57.9653 48.974 56.7C47.7433 55.4347 45.9667 54.802 43.644 54.802H40.368V69.05H43.644ZM67.0968 66.97H59.1928L57.7368 71H55.2408L61.7928 52.982H64.5228L71.0488 71H68.5528L67.0968 66.97ZM66.4208 65.046L63.1448 55.894L59.8688 65.046H66.4208ZM88.1523 71H85.7863L76.2703 56.57V71H73.9043V52.852H76.2703L85.7863 67.256V52.852H88.1523V71ZM103.34 52.878V54.802H98.3996V71H96.0336V54.802H91.0676V52.878H103.34ZM108.618 52.878V71H106.252V52.878H108.618ZM120.866 71.182C119.185 71.182 117.651 70.792 116.264 70.012C114.878 69.2147 113.777 68.114 112.962 66.71C112.165 65.2887 111.766 63.694 111.766 61.926C111.766 60.158 112.165 58.572 112.962 57.168C113.777 55.7467 114.878 54.646 116.264 53.866C117.651 53.0687 119.185 52.67 120.866 52.67C122.565 52.67 124.108 53.0687 125.494 53.866C126.881 54.646 127.973 55.738 128.77 57.142C129.568 58.546 129.966 60.1407 129.966 61.926C129.966 63.7113 129.568 65.306 128.77 66.71C127.973 68.114 126.881 69.2147 125.494 70.012C124.108 70.792 122.565 71.182 120.866 71.182ZM120.866 69.128C122.132 69.128 123.267 68.8333 124.272 68.244C125.295 67.6547 126.092 66.814 126.664 65.722C127.254 64.63 127.548 63.3647 127.548 61.926C127.548 60.47 127.254 59.2047 126.664 58.13C126.092 57.038 125.304 56.1973 124.298 55.608C123.293 55.0187 122.149 54.724 120.866 54.724C119.584 54.724 118.44 55.0187 117.434 55.608C116.429 56.1973 115.632 57.038 115.042 58.13C114.47 59.2047 114.184 60.47 114.184 61.926C114.184 63.3647 114.47 64.63 115.042 65.722C115.632 66.814 116.429 67.6547 117.434 68.244C118.457 68.8333 119.601 69.128 120.866 69.128ZM147.338 71H144.972L135.456 56.57V71H133.09V52.852H135.456L144.972 67.256V52.852H147.338V71Z" fill="#FF4C4C"/>
</svg>
